<svg width="139" height="31" viewBox="0 0 139 31" fill="none" xmlns="http://www.w3.org/2000/svg">
<path d="M23.9382 23L25.1831 6.88424H32.7882C34.0105 6.88424 35.0291 7.06532 35.8439 7.42747C36.6587 7.78962 37.2623 8.28004 37.6547 8.89871C38.0621 9.5023 38.2658 10.1889 38.2658 10.9585C38.2658 11.9091 38.0017 12.7013 37.4736 13.3351C36.9605 13.9688 36.1683 14.4593 35.097 14.8063L35.1875 14.6026C36.108 14.8139 36.8247 15.2741 37.3378 15.9833C37.8508 16.6925 38.1073 17.5074 38.1073 18.4278C38.1073 19.4087 37.8508 20.2461 37.3378 20.9403C36.8247 21.6193 36.108 22.1323 35.1875 22.4794C34.2821 22.8265 33.2334 23 32.0413 23H23.9382ZM28.3292 19.7859H31.6792C32.5544 19.7859 33.1806 19.6652 33.5578 19.4238C33.9501 19.1823 34.1463 18.7372 34.1463 18.0883C34.1463 17.53 33.9728 17.115 33.6257 16.8434C33.2937 16.5567 32.7354 16.4134 31.9508 16.4134H28.1934L28.4424 13.1993H31.7471C32.6223 13.1993 33.2409 13.0861 33.6031 12.8597C33.9803 12.6334 34.1689 12.226 34.1689 11.6375C34.1689 11.1395 34.003 10.7623 33.671 10.5058C33.3541 10.2341 32.8033 10.0983 32.0187 10.0983H29.0988L28.3292 19.7859ZM39.6725 23L41.0079 6.34102H45.1048L43.7693 23H39.6725ZM46.3284 23L47.2338 11.5017H51.3307L50.4253 23H46.3284ZM47.5733 5.86569H51.8739L51.5796 9.55511H47.3017L47.5733 5.86569ZM52.5091 14.5347L52.7581 11.5017H61.7666L61.5402 14.5347H52.5091ZM61.1554 19.718L60.8838 22.8416C60.5519 22.9774 60.1973 23.0679 59.82 23.1132C59.4579 23.1584 59.0882 23.1811 58.7109 23.1811C57.1265 23.1811 55.9721 22.7359 55.2478 21.8456C54.5386 20.9554 54.2444 19.7482 54.3651 18.2241L55.112 8.89871L59.3221 7.58591L58.4619 18.2241C58.4469 18.6014 58.5072 18.9107 58.643 19.1521C58.7788 19.3936 58.9674 19.5746 59.2089 19.6954C59.4503 19.8161 59.7219 19.8764 60.0237 19.8764C60.1897 19.8764 60.3557 19.8689 60.5217 19.8538C60.7028 19.8236 60.914 19.7784 61.1554 19.718ZM62.488 23L62.737 20.1254L69.0294 13.7878L69.1879 14.5347H63.1897L63.4161 11.5017H73.511L73.2847 14.2178L66.8565 20.7139L66.766 19.967H73.081L72.832 23H62.488ZM74.8727 23L76.2081 6.34102H80.3049L78.9695 23H74.8727ZM81.5286 23L82.864 6.34102H86.9609L85.6254 23H81.5286ZM93.0283 23.1811C92.0626 23.1811 91.21 22.9623 90.4706 22.5247C89.7312 22.0871 89.1503 21.4533 88.7278 20.6234C88.3204 19.7934 88.1167 18.8051 88.1167 17.6583C88.1167 16.3907 88.343 15.2741 88.7957 14.3084C89.2635 13.3426 89.9123 12.5806 90.7423 12.0223C91.5722 11.464 92.5379 11.1848 93.6395 11.1848C94.4543 11.1848 95.156 11.3508 95.7445 11.6828C96.3481 11.9996 96.8385 12.4448 97.2157 13.0182L96.9894 13.6746L97.1705 11.5017H101.199L100.294 23H96.2424L96.4235 20.895L96.6951 21.1892C96.4688 21.5967 96.1745 21.9513 95.8124 22.2531C95.4502 22.5549 95.0353 22.7887 94.5675 22.9547C94.0997 23.1056 93.5867 23.1811 93.0283 23.1811ZM94.4543 20.1481C95.1484 20.1481 95.6992 19.8689 96.1066 19.3106C96.514 18.7523 96.7178 18.0204 96.7178 17.115C96.7178 16.1493 96.5216 15.4325 96.1293 14.9648C95.752 14.497 95.2163 14.2631 94.5222 14.2631C93.7979 14.2631 93.2245 14.5498 92.802 15.1232C92.3795 15.6815 92.1682 16.436 92.1682 17.3866C92.1682 18.2769 92.3644 18.9635 92.7567 19.4464C93.1641 19.9142 93.73 20.1481 94.4543 20.1481ZM102.842 23L103.499 14.8063C103.544 14.248 103.574 13.6972 103.589 13.154C103.604 12.5957 103.597 12.0449 103.566 11.5017H107.437L107.505 13.6746L107.211 13.154C108.191 11.8412 109.489 11.1848 111.104 11.1848C112.13 11.1848 112.96 11.4715 113.594 12.0449C114.227 12.6032 114.597 13.3803 114.703 14.3763L114.159 13.2898C114.672 12.5957 115.276 12.0751 115.97 11.728C116.679 11.3659 117.441 11.1848 118.256 11.1848C119.569 11.1848 120.542 11.6149 121.176 12.475C121.825 13.3351 122.089 14.58 121.968 16.2097L121.425 23H117.328L117.849 16.3002C117.909 15.6815 117.834 15.2062 117.622 14.8742C117.411 14.5272 117.064 14.3536 116.581 14.3536C116.023 14.3536 115.585 14.5498 115.268 14.9421C114.952 15.3194 114.748 15.9456 114.657 16.8208L114.205 23H110.063L110.606 16.3681C110.651 15.7042 110.568 15.2062 110.357 14.8742C110.161 14.5272 109.814 14.3536 109.316 14.3536C108.757 14.3536 108.32 14.5498 108.003 14.9421C107.686 15.3194 107.497 15.9456 107.437 16.8208L106.939 23H102.842ZM128.732 23.1811C127.766 23.1811 126.913 22.9623 126.174 22.5247C125.435 22.0871 124.854 21.4533 124.431 20.6234C124.024 19.7934 123.82 18.8051 123.82 17.6583C123.82 16.3907 124.046 15.2741 124.499 14.3084C124.967 13.3426 125.616 12.5806 126.446 12.0223C127.275 11.464 128.241 11.1848 129.343 11.1848C130.158 11.1848 130.859 11.3508 131.448 11.6828C132.051 11.9996 132.542 12.4448 132.919 13.0182L132.693 13.6746L132.874 11.5017H136.903L135.997 23H131.946L132.127 20.895L132.398 21.1892C132.172 21.5967 131.878 21.9513 131.516 22.2531C131.153 22.5549 130.739 22.7887 130.271 22.9547C129.803 23.1056 129.29 23.1811 128.732 23.1811ZM130.158 20.1481C130.852 20.1481 131.402 19.8689 131.81 19.3106C132.217 18.7523 132.421 18.0204 132.421 17.115C132.421 16.1493 132.225 15.4325 131.833 14.9648C131.455 14.497 130.92 14.2631 130.225 14.2631C129.501 14.2631 128.928 14.5498 128.505 15.1232C128.083 15.6815 127.871 16.436 127.871 17.3866C127.871 18.2769 128.068 18.9635 128.46 19.4464C128.867 19.9142 129.433 20.1481 130.158 20.1481Z" fill="white"/>
<path fill-rule="evenodd" clip-rule="evenodd" d="M1.7703 22.2201V16.3191C0.792592 16.3191 0 15.5265 0 14.5488H1.7703H8.60074C9.81922 14.5488 10.9127 13.8007 11.3544 12.6651L14.7525 3.92694L15.7111 1.29103C15.8395 0.937682 16.2018 0.726216 16.5726 0.788028C17.1154 0.878492 17.3965 1.48728 17.1134 1.95913L15.9327 3.92694H20.4249C20.8277 3.92694 21.1121 4.32154 20.9848 4.70365L20.1525 7.20047C20.0962 7.3694 19.9666 7.50387 19.7999 7.5664L18.0473 8.22362C17.8366 8.30263 17.6891 8.49461 17.6672 8.71857L16.4888 20.7377C16.3407 22.2484 15.0704 23.4003 13.5524 23.4003H2.95051C2.2987 23.4003 1.7703 22.8719 1.7703 22.2201ZM16.0238 6.59515C16.6334 6.59515 17.1277 6.10092 17.1277 5.49125C17.1277 4.88158 16.6334 4.38735 16.0238 4.38735C15.4141 4.38735 14.9199 4.88158 14.9199 5.49125C14.9199 6.10092 15.4141 6.59515 16.0238 6.59515Z" fill="white"/>
<path d="M2.22537 27.7437L1.92963 29.0557L2.83306 28.0594L7.50022 22.9121C7.8568 22.5188 7.57775 21.8891 7.0469 21.8891L5.6334 21.8891L7.37037 18.9257C7.61035 18.5162 7.31311 18.0013 6.83853 18.0043L3.62815 18.0248C3.39504 18.0263 3.18304 18.1601 3.08138 18.3699L0.745583 23.1902C0.548662 23.5966 0.84468 24.069 1.29626 24.069H3.05367L2.22537 27.7437Z" fill="#22EEE2" stroke="#22EEE2" stroke-width="0.708122"/>
<path d="M6.96623 25.7216L6.71839 26.839L7.55388 26.0568L11.2878 22.5608C11.7175 22.1585 11.4328 21.4378 10.8442 21.4378H10.3771L11.9324 18.9634C12.1885 18.5559 11.8956 18.0258 11.4143 18.0258H8.67379C8.44541 18.0258 8.23604 18.153 8.13076 18.3557L6.07728 22.309C5.86569 22.7163 6.16129 23.203 6.62031 23.203H7.5249L6.96623 25.7216Z" fill="#FF527B" stroke="#FF527B" stroke-width="0.708122"/>
<path d="M18.9843 2.65032L17.6515 4.30808C17.5548 4.42833 17.4014 4.48797 17.2489 4.4646C16.9469 4.41833 16.7868 4.08204 16.9412 3.81843L17.9071 2.1697C17.9746 2.05452 18.0756 1.96262 18.1966 1.90624L18.3463 1.83648C18.6636 1.68866 19.0346 1.88302 19.0938 2.22803C19.1195 2.37798 19.0796 2.53175 18.9843 2.65032Z" fill="white"/>
</svg>
