<svg width="569" height="281" viewBox="0 0 569 281" fill="none" xmlns="http://www.w3.org/2000/svg">
<rect x="58.8418" y="80.9805" width="469.21" height="198.748" rx="33.0004" transform="rotate(-7.92588 58.8418 80.9805)" fill="#8684FF"/>
<rect x="50.1934" y="73.8672" width="469.21" height="198.748" rx="33.0004" transform="rotate(-7.92588 50.1934 73.8672)" fill="#FF31AD"/>
<rect x="40.9453" y="66.8789" width="469.21" height="198.748" rx="33.0004" transform="rotate(-7.92588 40.9453 66.8789)" fill="#F0F0F0"/>
<path d="M92.0818 103.248L85.4148 95.29L89.2363 94.758L93.1968 99.9131L95.6812 93.8607L99.5027 93.3286L95.3249 102.796L96.1157 108.477L92.8726 108.929L92.0818 103.248ZM107.627 107.253C106.25 107.445 104.98 107.299 103.818 106.815C102.67 106.329 101.72 105.556 100.968 104.495C100.217 103.435 99.7379 102.161 99.5308 100.674C99.3218 99.1726 99.4339 97.8094 99.8669 96.5839C100.3 95.3585 101.003 94.3552 101.975 93.5741C102.961 92.7911 104.142 92.3037 105.519 92.112C106.91 91.9183 108.18 92.0644 109.329 92.5503C110.489 93.0204 111.446 93.7927 112.199 94.867C112.95 95.9276 113.43 97.2084 113.639 98.7095C113.848 100.211 113.736 101.574 113.303 102.799C112.87 104.025 112.161 105.029 111.175 105.812C110.187 106.581 109.004 107.062 107.627 107.253ZM107.196 104.155C108.367 103.992 109.234 103.464 109.797 102.571C110.375 101.677 110.567 100.541 110.376 99.1638C110.184 97.7867 109.688 96.7467 108.888 96.0439C108.1 95.3253 107.121 95.0475 105.951 95.2105C104.78 95.3735 103.906 95.9022 103.329 96.7968C102.765 97.6895 102.58 98.8313 102.774 100.222C102.968 101.613 103.457 102.661 104.243 103.366C105.041 104.055 106.025 104.318 107.196 104.155ZM121.976 105.256C118.175 105.785 116.016 104.19 115.498 100.472L114.218 91.2799L117.461 90.8284L118.689 99.6489C118.789 100.365 118.931 100.928 119.114 101.337C119.295 101.733 119.58 102.017 119.969 102.187C120.356 102.344 120.887 102.375 121.562 102.281C122.236 102.187 122.732 102.013 123.047 101.759C123.374 101.488 123.571 101.138 123.638 100.708C123.718 100.275 123.709 99.708 123.611 99.0057L122.378 90.144L125.621 89.6924L126.886 98.7814C127.413 102.569 125.777 104.727 121.976 105.256ZM137.914 102.658L133.791 97.3989L132.986 97.5111L132.676 97.5542L133.472 103.276L130.25 103.725L128.245 89.327L133.306 88.6224C136.639 88.1585 138.503 89.3449 138.898 92.1818C139.038 93.1871 138.941 94.0568 138.608 94.7911C138.275 95.5253 137.726 96.1142 136.959 96.5578L141.673 102.134L137.914 102.658ZM133.77 94.3697C134.444 94.2758 134.949 94.1213 135.284 93.9061C135.619 93.691 135.745 93.2805 135.66 92.6746C135.603 92.2615 135.464 91.9719 135.245 91.806C135.025 91.64 134.775 91.5555 134.493 91.5526C134.212 91.5496 133.844 91.5798 133.39 91.643L131.882 91.853L132.262 94.5797L133.77 94.3697ZM145.957 86.8612L149.2 86.4097L150.791 97.8329L156.698 97.0104L157.112 99.985L147.962 101.259L145.957 86.8612ZM164.05 99.3981C162.673 99.5898 161.403 99.4437 160.241 98.9598C159.092 98.4739 158.143 97.7007 157.391 96.6402C156.64 95.5796 156.161 94.3057 155.954 92.8184C155.745 91.3173 155.857 89.9541 156.29 88.7286C156.723 87.5032 157.425 86.4999 158.398 85.7188C159.384 84.9358 160.565 84.4484 161.942 84.2567C163.333 84.063 164.603 84.2091 165.751 84.695C166.912 85.1651 167.869 85.9374 168.622 87.0117C169.373 88.0723 169.853 89.3531 170.062 90.8542C170.271 92.3552 170.159 93.7185 169.726 94.9439C169.293 96.1694 168.584 97.1736 167.598 97.9566C166.61 98.7259 165.427 99.2064 164.05 99.3981ZM163.619 96.2996C164.789 96.1366 165.656 95.6088 166.22 94.7161C166.797 93.8215 166.99 92.6857 166.798 91.3086C166.607 89.9314 166.111 88.8914 165.311 88.1886C164.523 87.47 163.544 87.1922 162.374 87.3552C161.203 87.5182 160.329 88.0469 159.752 88.9415C159.188 89.8342 159.003 90.976 159.197 92.3669C159.39 93.7578 159.88 94.8056 160.666 95.5104C161.464 96.1995 162.448 96.4625 163.619 96.2996ZM184.65 88.0021L185.763 95.9962L183.532 96.3068L182.967 94.9746C182.29 96.2621 180.994 97.0391 179.08 97.3056C177.648 97.505 176.351 97.3627 175.188 96.8788C174.024 96.3811 173.068 95.6157 172.321 94.5827C171.585 93.534 171.118 92.2935 170.918 90.8613C170.713 89.3878 170.832 88.0236 171.275 86.7687C171.73 85.4981 172.462 84.4556 173.472 83.6412C174.48 82.813 175.679 82.3021 177.07 82.1085C178.543 81.9033 179.932 82.0961 181.235 82.6867C182.539 83.2773 183.557 84.2375 184.29 85.5674L181.458 87.1619C181.072 86.4015 180.519 85.8607 179.801 85.5396C179.094 85.2028 178.314 85.0939 177.46 85.2127C176.248 85.3815 175.339 85.9081 174.732 86.7928C174.139 87.6755 173.944 88.8468 174.147 90.3065C174.356 91.8076 174.883 92.8713 175.728 93.4976C176.588 94.122 177.65 94.3461 178.917 94.1697C179.937 94.0278 180.693 93.712 181.186 93.2221C181.691 92.7166 181.902 92.1609 181.817 91.555L181.789 91.3484L178.711 91.7769L178.308 88.8849L184.65 88.0021ZM194.269 95.191C192.892 95.3827 191.622 95.2366 190.46 94.7527C189.311 94.2669 188.361 93.4936 187.61 92.4331C186.859 91.3725 186.379 90.0986 186.172 88.6113C185.963 87.1102 186.075 85.747 186.508 84.5215C186.941 83.2961 187.644 82.2928 188.616 81.5117C189.602 80.7287 190.784 80.2413 192.161 80.0496C193.552 79.8559 194.821 80.002 195.97 80.4879C197.13 80.958 198.087 81.7303 198.84 82.8046C199.592 83.8652 200.072 85.146 200.281 86.6471C200.49 88.1481 200.378 89.5114 199.945 90.7368C199.512 91.9623 198.802 92.9665 197.816 93.7495C196.828 94.5188 195.646 94.9993 194.269 95.191ZM193.837 92.0925C195.008 91.9295 195.875 91.4017 196.439 90.509C197.016 89.6144 197.209 88.4786 197.017 87.1015C196.825 85.7243 196.33 84.6844 195.53 83.9815C194.742 83.2629 193.763 82.9851 192.592 83.1481C191.422 83.3111 190.548 83.8398 189.97 84.7344C189.407 85.6271 189.222 86.7689 189.415 88.1598C189.609 89.5507 190.099 90.5985 190.885 91.3033C191.683 91.9924 192.667 92.2555 193.837 92.0925Z" fill="#4131FF"/>
<path d="M91.9115 123.966L94.1946 123.648L94.9091 128.78L100.48 128.004L99.7652 122.872L102.048 122.554L103.821 135.285L101.538 135.602L100.772 130.105L95.2015 130.88L95.9669 136.378L93.6839 136.696L91.9115 123.966ZM110.394 134.556C109.493 134.681 108.667 134.585 107.915 134.268C107.174 133.936 106.571 133.437 106.105 132.77C105.64 132.102 105.348 131.342 105.229 130.49C105.111 129.637 105.185 128.833 105.452 128.076C105.717 127.306 106.162 126.667 106.786 126.158C107.421 125.636 108.189 125.311 109.09 125.186C109.991 125.061 110.812 125.163 111.553 125.495C112.293 125.814 112.895 126.307 113.36 126.975C113.836 127.628 114.133 128.381 114.252 129.234C114.371 130.086 114.291 130.898 114.014 131.669C113.748 132.438 113.305 133.083 112.682 133.604C112.058 134.113 111.295 134.43 110.394 134.556ZM110.127 132.638C110.906 132.529 111.448 132.187 111.753 131.611C112.07 131.033 112.172 130.342 112.06 129.539C111.948 128.735 111.662 128.105 111.201 127.648C110.751 127.177 110.136 126.995 109.357 127.104C108.577 127.212 108.029 127.555 107.713 128.133C107.406 128.697 107.309 129.381 107.421 130.185C107.533 130.988 107.814 131.626 108.264 132.097C108.727 132.566 109.348 132.746 110.127 132.638ZM113.941 124.697L116.278 124.371L118.598 129.801L119.511 123.921L121.392 123.659L123.874 129.048L124.644 123.207L126.981 122.881L125.459 132.272L123.486 132.547L120.893 126.894L119.943 133.04L117.97 133.315L113.941 124.697ZM136.075 130.98C135.429 131.07 134.885 130.947 134.441 130.612C134.009 130.275 133.739 129.717 133.631 128.937L132.158 118.362L134.35 118.057L135.802 128.486C135.855 128.864 136.094 129.023 136.52 128.963C136.727 128.935 136.953 128.866 137.199 128.757L137.443 130.511C136.981 130.761 136.525 130.918 136.075 130.98ZM137.852 121.368L140.043 121.063L141.297 130.067L139.105 130.372L137.852 121.368ZM137.278 117.65L139.58 117.329L139.862 119.356L137.56 119.677L137.278 117.65ZM142.096 116.979L144.287 116.674L145.315 124.053L148.112 119.939L151.053 119.53L148.178 123.486L152.69 128.481L150.078 128.845L146.868 125.046L145.694 126.774L146.06 129.404L143.868 129.709L142.096 116.979ZM160.473 122.687C160.511 122.955 160.531 123.237 160.536 123.535L154.362 124.394C154.496 124.996 154.776 125.447 155.202 125.748C155.629 126.049 156.189 126.151 156.883 126.054C157.76 125.932 158.434 125.509 158.904 124.786L160.605 125.908C160.182 126.526 159.685 127.011 159.114 127.363C158.554 127.714 157.897 127.942 157.142 128.047C156.156 128.185 155.298 128.087 154.569 127.754C153.853 127.419 153.287 126.927 152.874 126.277C152.459 125.615 152.193 124.864 152.076 124.023C151.961 123.195 152.006 122.401 152.21 121.64C152.427 120.878 152.821 120.233 153.393 119.707C153.976 119.166 154.742 118.83 155.692 118.698C156.593 118.572 157.382 118.667 158.059 118.983C158.736 119.298 159.275 119.782 159.676 120.433C160.089 121.083 160.355 121.834 160.473 122.687ZM158.248 122.084C158.158 121.526 157.896 121.109 157.46 120.835C157.023 120.548 156.512 120.446 155.928 120.527C155.307 120.613 154.845 120.864 154.543 121.278C154.251 121.679 154.104 122.14 154.102 122.662L158.248 122.084ZM164.97 126.958C164.324 127.047 163.78 126.925 163.336 126.589C162.904 126.252 162.634 125.694 162.525 124.915L161.053 114.34L163.245 114.034L164.697 124.463C164.749 124.841 164.989 125 165.415 124.941C165.622 124.912 165.848 124.843 166.094 124.734L166.338 126.488C165.876 126.738 165.42 126.895 164.97 126.958ZM170.122 125.812L165.377 117.536L167.788 117.2L170.94 123.129L172.372 116.562L174.783 116.226L171.441 129.669L169.067 129.999L170.122 125.812ZM180.409 115.443L182.601 115.138L183.855 124.142L181.663 124.447L180.409 115.443ZM179.836 111.725L182.137 111.404L182.419 113.432L180.118 113.752L179.836 111.725ZM189.264 123.575C188.351 123.702 187.514 123.577 186.754 123.199C186.004 122.806 185.463 122.267 185.132 121.581L186.776 120.552C187.267 121.489 187.974 121.893 188.9 121.764C189.375 121.698 189.719 121.538 189.932 121.285C190.157 121.031 190.251 120.769 190.214 120.501C190.176 120.233 190.02 120.05 189.746 119.952C189.472 119.854 189.03 119.76 188.422 119.671C187.791 119.597 187.263 119.503 186.838 119.389C186.41 119.262 186.025 119.036 185.682 118.712C185.337 118.375 185.123 117.902 185.038 117.293C184.923 116.465 185.149 115.776 185.718 115.225C186.299 114.673 187.052 114.332 187.978 114.203C188.745 114.096 189.444 114.173 190.076 114.432C190.708 114.692 191.238 115.108 191.665 115.682L190.096 116.85C189.866 116.534 189.597 116.293 189.288 116.125C188.977 115.944 188.597 115.886 188.146 115.948C187.805 115.996 187.535 116.108 187.336 116.284C187.15 116.459 187.072 116.656 187.102 116.876C187.136 117.119 187.29 117.29 187.565 117.388C187.851 117.485 188.278 117.568 188.847 117.638C189.505 117.733 190.054 117.842 190.494 117.967C190.933 118.092 191.331 118.322 191.688 118.658C192.045 118.993 192.266 119.465 192.351 120.073C192.444 120.743 192.352 121.327 192.073 121.825C191.807 122.321 191.422 122.716 190.917 123.01C190.411 123.304 189.86 123.492 189.264 123.575ZM197.782 113.024L199.974 112.719L201.227 121.723L199.035 122.029L197.782 113.024ZM197.208 109.306L199.51 108.986L199.792 111.013L197.491 111.333L197.208 109.306ZM205.325 113.743L205.963 118.327C206.012 118.68 206.146 118.929 206.365 119.072C206.595 119.214 206.893 119.259 207.259 119.208C207.563 119.166 207.919 119.048 208.327 118.855L208.571 120.608C208.048 120.867 207.513 121.035 206.965 121.111C206.149 121.224 205.449 121.098 204.864 120.733C204.278 120.355 203.921 119.71 203.794 118.797L203.133 114.048L201.672 114.251L201.43 112.516L202.892 112.313L202.599 110.212L204.565 108.282L205.083 112.008L207.33 111.695L207.571 113.43L205.325 113.743ZM216.437 112.196L217.075 116.78C217.124 117.133 217.258 117.382 217.477 117.525C217.707 117.667 218.005 117.712 218.371 117.661C218.675 117.619 219.031 117.501 219.439 117.308L219.683 119.061C219.16 119.32 218.625 119.488 218.077 119.564C217.261 119.677 216.561 119.551 215.977 119.186C215.39 118.808 215.033 118.163 214.906 117.25L214.245 112.501L212.784 112.704L212.542 110.969L214.004 110.766L213.711 108.665L215.677 106.735L216.195 110.461L218.442 110.148L218.683 111.883L216.437 112.196ZM224.823 109.073C225.833 108.933 226.653 109.116 227.283 109.625C227.924 110.131 228.32 110.926 228.471 112.01L229.28 117.818L227.088 118.123L226.356 112.863C226.261 112.181 226.056 111.694 225.743 111.403C225.429 111.111 224.986 111.006 224.414 111.085C223.696 111.185 223.213 111.55 222.965 112.181C222.728 112.797 222.7 113.751 222.879 115.041L223.38 118.639L221.189 118.944L219.416 106.214L221.608 105.909L222.269 110.658C222.778 109.768 223.629 109.24 224.823 109.073ZM233.85 107.817C235.043 107.651 236.025 107.837 236.795 108.375C237.575 108.899 238.041 109.703 238.192 110.787L238.983 116.467L236.974 116.747L236.628 115.603C236.42 116.067 236.089 116.454 235.636 116.766C235.193 117.063 234.673 117.253 234.077 117.336C233.456 117.423 232.879 117.379 232.345 117.205C231.823 117.017 231.39 116.717 231.047 116.306C230.705 115.894 230.494 115.408 230.416 114.848C230.342 114.313 230.393 113.834 230.57 113.412C230.747 112.99 231.041 112.651 231.452 112.395C232 112.046 232.778 111.801 233.789 111.66L236.036 111.348L236 111.092C235.932 110.605 235.727 110.243 235.383 110.005C235.038 109.755 234.604 109.667 234.08 109.739C233.618 109.804 233.195 109.981 232.814 110.27C232.432 110.559 232.107 110.945 231.839 111.429L230.065 110.317C230.956 108.877 232.218 108.044 233.85 107.817ZM234.164 115.425C234.822 115.333 235.354 115.055 235.761 114.588C236.178 114.108 236.346 113.576 236.265 112.992L234.31 113.264C233.604 113.362 233.125 113.534 232.874 113.78C232.654 113.984 232.567 114.251 232.613 114.58C232.657 114.896 232.814 115.135 233.085 115.296C233.366 115.443 233.726 115.486 234.164 115.425ZM242.781 108.528L243.419 113.112C243.469 113.466 243.602 113.714 243.821 113.857C244.052 113.999 244.35 114.044 244.715 113.993C245.019 113.951 245.375 113.833 245.783 113.64L246.027 115.393C245.505 115.652 244.969 115.82 244.421 115.896C243.606 116.01 242.905 115.884 242.321 115.518C241.734 115.141 241.378 114.495 241.251 113.582L240.589 108.833L239.128 109.037L238.887 107.302L240.348 107.098L240.055 104.998L242.021 103.067L242.54 106.793L244.786 106.48L245.028 108.215L242.781 108.528ZM254.47 114.069L249.725 105.793L252.136 105.457L255.288 111.386L256.72 104.819L259.131 104.483L255.789 117.925L253.415 118.256L254.47 114.069ZM264.875 113.049C263.974 113.174 263.147 113.078 262.396 112.761C261.654 112.429 261.051 111.93 260.586 111.262C260.121 110.595 259.829 109.835 259.71 108.983C259.591 108.13 259.665 107.326 259.932 106.569C260.198 105.799 260.642 105.16 261.267 104.651C261.901 104.128 262.669 103.804 263.57 103.679C264.471 103.553 265.292 103.656 266.034 103.988C266.773 104.307 267.376 104.8 267.841 105.468C268.317 106.121 268.614 106.874 268.733 107.727C268.851 108.579 268.772 109.391 268.494 110.161C268.229 110.931 267.785 111.576 267.163 112.097C266.538 112.606 265.776 112.923 264.875 113.049ZM264.608 111.131C265.387 111.022 265.929 110.68 266.233 110.104C266.55 109.526 266.653 108.835 266.541 108.032C266.429 107.228 266.143 106.598 265.682 106.14C265.231 105.669 264.617 105.488 263.837 105.597C263.058 105.705 262.51 106.048 262.193 106.626C261.887 107.19 261.79 107.874 261.902 108.678C262.014 109.481 262.295 110.118 262.745 110.59C263.208 111.059 263.828 111.239 264.608 111.131ZM277.695 101.899L278.948 110.903L276.757 111.208L276.612 110.167C276.365 110.623 276.019 110.988 275.573 111.261C275.137 111.521 274.645 111.688 274.097 111.765C273.026 111.914 272.175 111.691 271.546 111.096C270.917 110.501 270.531 109.686 270.387 108.651L269.604 103.025L271.795 102.72L272.502 107.797C272.582 108.37 272.751 108.868 273.008 109.291C273.264 109.702 273.751 109.858 274.47 109.758C275.103 109.67 275.538 109.41 275.776 108.98C276.026 108.548 276.146 108.072 276.136 107.552C276.138 107.031 276.085 106.386 275.979 105.619L275.503 102.204L277.695 101.899ZM283.493 101.091L285.831 100.766L288.151 106.196L289.064 100.316L290.945 100.054L293.427 105.443L294.196 99.6013L296.534 99.2759L295.011 108.667L293.039 108.941L290.446 103.289L289.495 109.435L287.523 109.709L283.493 101.091ZM297.879 99.0885L300.071 98.7834L301.325 107.788L299.133 108.093L297.879 99.0885ZM297.306 95.3702L299.607 95.0498L299.889 97.0771L297.588 97.3975L297.306 95.3702ZM305.93 107.333C305.285 107.423 304.74 107.3 304.296 106.964C303.865 106.627 303.595 106.069 303.486 105.29L302.014 94.7147L304.206 94.4096L305.658 104.839C305.71 105.216 305.949 105.375 306.376 105.316C306.583 105.287 306.809 105.218 307.054 105.11L307.298 106.863C306.837 107.113 306.381 107.27 305.93 107.333ZM311.014 106.625C310.368 106.715 309.824 106.592 309.38 106.257C308.948 105.92 308.678 105.361 308.569 104.582L307.097 94.007L309.289 93.7019L310.741 104.131C310.793 104.508 311.033 104.667 311.459 104.608C311.666 104.579 311.892 104.511 312.138 104.402L312.382 106.155C311.92 106.406 311.464 106.562 311.014 106.625ZM321.827 95.5682C322.424 95.4852 323.02 95.576 323.615 95.8406L322.826 97.9241C322.48 97.7612 322.1 97.7086 321.686 97.7662C320.359 97.951 319.813 98.8835 320.047 100.564L320.677 105.093L318.485 105.399L317.232 96.3942L319.442 96.0865L319.655 97.6208C319.763 97.0596 320.016 96.5963 320.411 96.2308C320.82 95.8637 321.292 95.6428 321.827 95.5682ZM332.505 98.7363C332.542 99.0042 332.563 99.2868 332.567 99.5841L326.394 100.444C326.527 101.046 326.807 101.497 327.234 101.797C327.661 102.098 328.221 102.2 328.915 102.103C329.792 101.981 330.465 101.559 330.935 100.835L332.637 101.958C332.214 102.575 331.717 103.06 331.145 103.413C330.586 103.764 329.929 103.992 329.174 104.097C328.188 104.234 327.33 104.136 326.601 103.803C325.884 103.469 325.319 102.976 324.906 102.326C324.491 101.664 324.225 100.913 324.108 100.073C323.993 99.2449 324.037 98.4505 324.242 97.6897C324.458 96.9273 324.853 96.2828 325.425 95.7563C326.007 95.2159 326.774 94.8796 327.723 94.7474C328.624 94.622 329.413 94.7169 330.09 95.0323C330.767 95.3476 331.306 95.8311 331.707 96.4828C332.12 97.1328 332.386 97.8839 332.505 98.7363ZM330.28 98.1338C330.19 97.5753 329.927 97.1589 329.492 96.8844C329.055 96.5977 328.544 96.495 327.959 96.5764C327.338 96.6628 326.877 96.9133 326.574 97.3277C326.283 97.7283 326.136 98.1894 326.134 98.711L330.28 98.1338ZM338.554 102.791C337.616 102.921 336.789 102.819 336.072 102.485C335.353 102.138 334.781 101.634 334.354 100.974C333.925 100.301 333.654 99.5569 333.54 98.7411C333.425 97.9131 333.482 97.1232 333.713 96.3712C333.942 95.607 334.348 94.9608 334.932 94.4326C335.527 93.8906 336.293 93.5543 337.231 93.4237C338.144 93.2966 338.967 93.4117 339.699 93.7689C340.43 94.1141 341.027 94.7012 341.49 95.5305L339.522 96.6422C339.334 96.1843 339.057 95.8382 338.689 95.6039C338.333 95.3679 337.936 95.2805 337.498 95.3415C336.792 95.4398 336.299 95.7814 336.021 96.3664C335.754 96.9496 335.676 97.6369 335.787 98.4284C335.897 99.2198 336.159 99.8536 336.573 100.33C336.985 100.794 337.55 100.976 338.268 100.876C338.707 100.815 339.066 100.628 339.345 100.316C339.635 99.9903 339.808 99.5876 339.866 99.1079L341.963 99.5979C341.776 100.48 341.38 101.206 340.777 101.774C340.184 102.328 339.443 102.667 338.554 102.791ZM347.618 101.529C346.716 101.654 345.89 101.558 345.138 101.241C344.397 100.91 343.794 100.41 343.329 99.7429C342.863 99.0753 342.571 98.3154 342.453 97.4631C342.334 96.6107 342.408 95.806 342.675 95.0489C342.94 94.2797 343.385 93.6406 344.009 93.1317C344.644 92.6089 345.412 92.2847 346.313 92.1593C347.214 92.0339 348.035 92.1367 348.776 92.468C349.516 92.787 350.118 93.2804 350.584 93.9479C351.059 94.6016 351.357 95.3546 351.475 96.2069C351.594 97.0593 351.515 97.8709 351.237 98.6419C350.972 99.4111 350.528 100.056 349.905 100.577C349.281 101.086 348.519 101.403 347.618 101.529ZM347.351 99.6112C348.13 99.5027 348.672 99.1604 348.976 98.5842C349.293 98.0064 349.395 97.3157 349.284 96.5121C349.172 95.7084 348.885 95.078 348.425 94.6209C347.974 94.1498 347.359 93.9686 346.58 94.0771C345.801 94.1856 345.253 94.5287 344.936 95.1065C344.63 95.6705 344.533 96.3543 344.644 97.1579C344.756 97.9616 345.037 98.5989 345.488 99.0699C345.95 99.5393 346.571 99.7197 347.351 99.6112ZM362.64 89.8863C363.662 89.7439 364.488 89.9702 365.117 90.5654C365.745 91.1483 366.126 91.9268 366.262 92.9009L367.06 98.6359L364.868 98.9411L364.161 93.8636C363.958 92.4024 363.345 91.743 362.322 91.8854C361.75 91.9651 361.361 92.2054 361.156 92.6063C360.95 92.995 360.856 93.4362 360.875 93.9301C360.893 94.4117 360.962 95.0909 361.084 95.9676L361.563 99.4013L359.371 99.7064L358.664 94.6289C358.46 93.1678 357.853 92.5076 356.843 92.6483C356.271 92.7279 355.882 92.9682 355.677 93.3691C355.471 93.7578 355.372 94.206 355.38 94.7137C355.399 95.2076 355.468 95.8806 355.587 96.733L356.065 100.167L353.873 100.472L352.601 91.47L354.72 91.1751L354.878 92.3074C355.267 91.3596 356.01 90.8093 357.105 90.6568C357.666 90.5788 358.196 90.6415 358.696 90.845C359.208 91.0467 359.637 91.4525 359.982 92.0622C360.223 91.3833 360.568 90.876 361.018 90.5403C361.466 90.1924 362.006 89.9744 362.64 89.8863ZM378.175 87.7234C379.198 87.581 380.024 87.8074 380.653 88.4025C381.28 88.9854 381.662 89.7639 381.797 90.738L382.596 96.4731L380.404 96.7782L379.697 91.7007C379.494 90.2395 378.88 89.5801 377.858 89.7225C377.285 89.8022 376.897 90.0425 376.692 90.4434C376.485 90.8321 376.392 91.2734 376.411 91.7672C376.428 92.2489 376.498 92.928 376.62 93.8047L377.098 97.2384L374.906 97.5436L374.199 92.4661C373.996 91.0049 373.389 90.3447 372.378 90.4854C371.806 90.5651 371.417 90.8053 371.213 91.2062C371.006 91.5949 370.907 92.0431 370.916 92.5509C370.935 93.0447 371.004 93.7178 371.122 94.5701L371.6 98.0038L369.409 98.309L368.137 89.3071L370.255 89.0122L370.413 90.1446C370.802 89.1967 371.545 88.6464 372.641 88.4939C373.201 88.4159 373.731 88.4786 374.231 88.6821C374.743 88.8839 375.172 89.2896 375.518 89.8994C375.758 89.2204 376.103 88.7131 376.553 88.3774C377.001 88.0296 377.542 87.8116 378.175 87.7234ZM391.954 90.4598C391.991 90.7276 392.012 91.0102 392.016 91.3075L385.842 92.167C385.976 92.769 386.256 93.2203 386.683 93.5209C387.109 93.8215 387.669 93.9234 388.364 93.8268C389.24 93.7047 389.914 93.2821 390.384 92.5587L392.086 93.681C391.663 94.2984 391.165 94.7835 390.594 95.1361C390.034 95.487 389.377 95.7151 388.622 95.8202C387.636 95.9575 386.778 95.8597 386.049 95.5267C385.333 95.1921 384.768 94.6998 384.354 94.0498C383.939 93.3877 383.674 92.6365 383.557 91.7964C383.441 90.9684 383.486 90.174 383.69 89.4132C383.907 88.6507 384.301 88.0063 384.873 87.4798C385.456 86.9394 386.222 86.6031 387.172 86.4709C388.073 86.3454 388.862 86.4404 389.539 86.7557C390.216 87.0711 390.755 87.5546 391.156 88.2063C391.569 88.8563 391.835 89.6074 391.954 90.4598ZM389.729 89.8572C389.638 89.2988 389.376 88.8823 388.94 88.6078C388.503 88.3211 387.992 88.2185 387.408 88.2998C386.787 88.3863 386.325 88.6368 386.023 89.0512C385.731 89.4518 385.584 89.9129 385.583 90.4344L389.729 89.8572ZM398.031 84.959C399.042 84.8183 399.863 85.0081 400.494 85.5285C401.135 86.035 401.53 86.824 401.679 87.8955L402.488 93.7036L400.296 94.0087L399.564 88.7486C399.488 88.2006 399.325 87.7454 399.076 87.3829C398.825 87.0082 398.341 86.8709 397.622 86.9709C396.989 87.059 396.546 87.3069 396.292 87.7146C396.049 88.1084 395.926 88.56 395.922 89.0694C395.929 89.5649 395.984 90.1841 396.088 90.9268L396.589 94.5249L394.397 94.83L393.143 85.8257L395.335 85.5205L395.48 86.5616C395.727 86.1052 396.068 85.7474 396.504 85.4882C396.95 85.2151 397.459 85.0387 398.031 84.959ZM410.967 79.5461L412.739 92.2764L410.548 92.5815L410.423 91.6866C410.182 92.0925 409.842 92.4191 409.405 92.6661C408.966 92.901 408.491 93.0541 407.979 93.1253C406.786 93.2914 405.794 92.9888 405.004 92.2175C404.213 91.4341 403.72 90.3483 403.527 88.9602C403.393 87.9983 403.435 87.1422 403.653 86.3919C403.884 85.6399 404.26 85.0414 404.781 84.5964C405.301 84.1393 405.932 83.859 406.675 83.7556C407.186 83.6844 407.687 83.714 408.177 83.8444C408.679 83.9731 409.094 84.1884 409.421 84.4904L408.775 79.8512L410.967 79.5461ZM408.227 91.0242C408.982 90.9191 409.514 90.5967 409.824 90.0571C410.133 89.5175 410.233 88.852 410.123 88.0605C410.011 87.2569 409.732 86.6317 409.285 86.185C408.838 85.7384 408.243 85.5667 407.5 85.6701C406.782 85.7702 406.273 86.083 405.974 86.6088C405.685 87.1206 405.601 87.8088 405.721 88.6733C405.84 89.5257 406.108 90.1586 406.525 90.5721C406.941 90.9735 407.508 91.1242 408.227 91.0242ZM102.869 147.441L104.123 156.445L101.931 156.75L101.786 155.709C101.539 156.166 101.193 156.53 100.747 156.803C100.311 157.063 99.8195 157.23 99.2716 157.307C98.2001 157.456 97.3499 157.233 96.7209 156.638C96.0919 156.043 95.7053 155.228 95.5612 154.193L94.778 148.567L96.9698 148.262L97.6767 153.34C97.7564 153.912 97.925 154.41 98.1825 154.833C98.4384 155.244 98.9255 155.4 99.6439 155.3C100.277 155.212 100.713 154.953 100.951 154.522C101.201 154.09 101.321 153.614 101.31 153.094C101.312 152.573 101.26 151.928 101.153 151.161L100.677 147.746L102.869 147.441ZM109.541 155.877C108.628 156.004 107.792 155.878 107.031 155.5C106.282 155.108 105.741 154.569 105.41 153.883L107.054 152.853C107.544 153.79 108.252 154.195 109.178 154.066C109.653 154 109.996 153.84 110.209 153.587C110.435 153.332 110.529 153.071 110.491 152.803C110.454 152.535 110.298 152.352 110.024 152.254C109.749 152.155 109.308 152.062 108.7 151.972C108.069 151.899 107.541 151.805 107.115 151.69C106.688 151.564 106.303 151.338 105.96 151.013C105.615 150.677 105.4 150.204 105.316 149.595C105.2 148.767 105.427 148.078 105.996 147.527C106.577 146.974 107.33 146.634 108.255 146.505C109.022 146.398 109.722 146.474 110.354 146.734C110.986 146.993 111.515 147.41 111.943 147.983L110.374 149.151C110.144 148.836 109.874 148.594 109.565 148.426C109.255 148.246 108.874 148.187 108.424 148.25C108.083 148.297 107.813 148.409 107.614 148.586C107.428 148.761 107.349 148.958 107.38 149.177C107.414 149.421 107.568 149.592 107.842 149.69C108.129 149.787 108.556 149.87 109.125 149.94C109.783 150.034 110.332 150.144 110.772 150.269C111.211 150.394 111.609 150.624 111.966 150.959C112.323 151.294 112.544 151.766 112.629 152.375C112.722 153.045 112.629 153.629 112.351 154.127C112.085 154.623 111.7 155.018 111.194 155.312C110.689 155.605 110.138 155.794 109.541 155.877ZM120.858 146.705L121.496 151.289C121.546 151.642 121.679 151.891 121.898 152.034C122.129 152.176 122.427 152.221 122.792 152.17C123.096 152.128 123.452 152.01 123.86 151.817L124.104 153.57C123.582 153.829 123.046 153.997 122.498 154.073C121.683 154.187 120.982 154.061 120.398 153.695C119.811 153.318 119.455 152.672 119.328 151.759L118.666 147.01L117.205 147.214L116.964 145.478L118.425 145.275L118.132 143.175L120.098 141.244L120.617 144.97L122.863 144.657L123.105 146.392L120.858 146.705ZM129.681 153.073C128.78 153.198 127.954 153.102 127.202 152.785C126.461 152.454 125.858 151.954 125.393 151.287C124.927 150.619 124.635 149.859 124.517 149.007C124.398 148.155 124.472 147.35 124.739 146.593C125.004 145.824 125.449 145.185 126.073 144.676C126.708 144.153 127.476 143.829 128.377 143.703C129.278 143.578 130.099 143.681 130.84 144.012C131.58 144.331 132.182 144.824 132.648 145.492C133.123 146.146 133.421 146.899 133.539 147.751C133.658 148.603 133.579 149.415 133.301 150.186C133.036 150.955 132.592 151.6 131.969 152.121C131.345 152.63 130.582 152.947 129.681 153.073ZM129.414 151.155C130.194 151.047 130.736 150.704 131.04 150.128C131.357 149.55 131.459 148.86 131.348 148.056C131.236 147.252 130.949 146.622 130.488 146.165C130.038 145.694 129.423 145.513 128.644 145.621C127.865 145.73 127.317 146.073 127 146.651C126.694 147.214 126.596 147.898 126.708 148.702C126.82 149.506 127.101 150.143 127.552 150.614C128.014 151.083 128.635 151.264 129.414 151.155ZM142.482 150.863L137.737 142.586L140.148 142.251L143.3 148.179L144.732 141.613L147.143 141.277L143.801 154.719L141.427 155.05L142.482 150.863ZM152.887 149.842C151.985 149.968 151.159 149.872 150.407 149.554C149.666 149.223 149.063 148.724 148.598 148.056C148.132 147.389 147.84 146.629 147.722 145.776C147.603 144.924 147.677 144.119 147.944 143.362C148.209 142.593 148.654 141.954 149.278 141.445C149.913 140.922 150.681 140.598 151.582 140.473C152.483 140.347 153.304 140.45 154.045 140.781C154.785 141.1 155.387 141.594 155.853 142.261C156.328 142.915 156.626 143.668 156.744 144.52C156.863 145.373 156.784 146.184 156.506 146.955C156.241 147.724 155.797 148.37 155.174 148.891C154.55 149.4 153.788 149.717 152.887 149.842ZM152.62 147.925C153.399 147.816 153.941 147.474 154.245 146.898C154.562 146.32 154.664 145.629 154.553 144.825C154.441 144.022 154.154 143.391 153.694 142.934C153.243 142.463 152.628 142.282 151.849 142.39C151.07 142.499 150.522 142.842 150.205 143.42C149.899 143.984 149.802 144.668 149.913 145.471C150.025 146.275 150.306 146.912 150.757 147.383C151.219 147.853 151.84 148.033 152.62 147.925ZM165.707 138.692L166.96 147.697L164.769 148.002L164.624 146.961C164.377 147.417 164.03 147.782 163.584 148.055C163.149 148.314 162.657 148.482 162.109 148.558C161.038 148.707 160.187 148.485 159.558 147.889C158.929 147.294 158.543 146.479 158.399 145.444L157.615 139.819L159.807 139.514L160.514 144.591C160.594 145.163 160.762 145.661 161.02 146.085C161.276 146.496 161.763 146.652 162.481 146.552C163.114 146.463 163.55 146.204 163.788 145.774C164.038 145.342 164.158 144.866 164.148 144.346C164.15 143.824 164.097 143.18 163.99 142.413L163.515 138.998L165.707 138.692ZM172.864 137.51C173.461 137.427 174.057 137.517 174.652 137.782L173.863 139.866C173.517 139.703 173.138 139.65 172.724 139.708C171.396 139.892 170.85 140.825 171.084 142.505L171.714 147.035L169.523 147.34L168.269 138.336L170.479 138.028L170.693 139.562C170.801 139.001 171.053 138.538 171.449 138.172C171.857 137.805 172.329 137.584 172.864 137.51ZM180.883 138.348L179.167 138.587L178.925 136.852L180.66 136.611L180.518 135.588C180.25 133.664 181.023 132.576 182.837 132.323C183.446 132.238 184.029 132.281 184.587 132.452L184.109 134.231C183.857 134.117 183.597 134.079 183.329 134.116C182.988 134.164 182.783 134.298 182.715 134.518C182.658 134.737 182.65 134.987 182.689 135.267L182.834 136.308L184.934 136.016L185.176 137.751L183.075 138.043L184.087 145.312L181.896 145.617L180.883 138.348ZM190.754 135.019C191.351 134.936 191.947 135.027 192.542 135.291L191.753 137.375C191.407 137.212 191.027 137.159 190.613 137.217C189.286 137.402 188.74 138.334 188.974 140.015L189.604 144.544L187.412 144.849L186.159 135.845L188.369 135.537L188.582 137.072C188.69 136.51 188.942 136.047 189.338 135.682C189.747 135.314 190.219 135.094 190.754 135.019ZM193.614 134.807L195.806 134.502L197.06 143.506L194.868 143.811L193.614 134.807ZM193.041 131.089L195.342 130.768L195.624 132.796L193.323 133.116L193.041 131.089ZM206.64 137.462C206.677 137.73 206.698 138.012 206.702 138.31L200.529 139.169C200.662 139.771 200.942 140.223 201.369 140.523C201.796 140.824 202.356 140.926 203.05 140.829C203.927 140.707 204.6 140.284 205.071 139.561L206.772 140.683C206.349 141.301 205.852 141.786 205.28 142.138C204.721 142.489 204.064 142.717 203.309 142.822C202.323 142.96 201.465 142.862 200.736 142.529C200.019 142.194 199.454 141.702 199.041 141.052C198.626 140.39 198.36 139.639 198.243 138.799C198.128 137.971 198.172 137.176 198.377 136.415C198.593 135.653 198.988 135.008 199.56 134.482C200.143 133.942 200.909 133.605 201.858 133.473C202.759 133.348 203.548 133.443 204.225 133.758C204.902 134.073 205.441 134.557 205.842 135.208C206.256 135.858 206.522 136.61 206.64 137.462ZM204.415 136.859C204.325 136.301 204.062 135.885 203.627 135.61C203.19 135.323 202.679 135.221 202.094 135.302C201.473 135.389 201.012 135.639 200.71 136.053C200.418 136.454 200.271 136.915 200.269 137.437L204.415 136.859ZM212.718 131.961C213.728 131.821 214.549 132.01 215.18 132.531C215.822 133.037 216.217 133.826 216.366 134.898L217.175 140.706L214.983 141.011L214.251 135.751C214.174 135.203 214.012 134.748 213.763 134.385C213.512 134.01 213.027 133.873 212.309 133.973C211.676 134.061 211.232 134.309 210.979 134.717C210.736 135.111 210.612 135.562 210.609 136.072C210.616 136.567 210.671 137.186 210.774 137.929L211.275 141.527L209.084 141.832L207.83 132.828L210.022 132.523L210.167 133.564C210.413 133.107 210.755 132.75 211.19 132.49C211.636 132.217 212.145 132.041 212.718 131.961ZM225.654 126.548L227.426 139.279L225.234 139.584L225.11 138.689C224.868 139.095 224.529 139.421 224.092 139.668C223.653 139.903 223.177 140.056 222.666 140.127C221.473 140.294 220.481 139.991 219.691 139.22C218.899 138.436 218.407 137.351 218.214 135.962C218.08 135 218.122 134.144 218.34 133.394C218.57 132.642 218.946 132.044 219.468 131.599C219.988 131.141 220.619 130.861 221.362 130.758C221.873 130.687 222.374 130.716 222.863 130.847C223.365 130.975 223.78 131.191 224.108 131.493L223.462 126.853L225.654 126.548ZM222.913 138.026C223.668 137.921 224.201 137.599 224.51 137.059C224.82 136.52 224.92 135.854 224.81 135.063C224.698 134.259 224.418 133.634 223.971 133.187C223.524 132.741 222.929 132.569 222.187 132.672C221.468 132.772 220.959 133.085 220.66 133.611C220.372 134.123 220.287 134.811 220.408 135.676C220.526 136.528 220.795 137.161 221.212 137.574C221.628 137.976 222.195 138.126 222.913 138.026ZM232.862 138.708C231.949 138.835 231.112 138.71 230.352 138.331C229.602 137.939 229.062 137.4 228.73 136.714L230.374 135.684C230.865 136.621 231.573 137.026 232.498 136.897C232.973 136.831 233.317 136.671 233.53 136.418C233.755 136.163 233.849 135.902 233.812 135.634C233.775 135.366 233.619 135.183 233.344 135.085C233.07 134.986 232.629 134.893 232.021 134.804C231.39 134.73 230.861 134.636 230.436 134.521C230.009 134.395 229.624 134.169 229.28 133.844C228.936 133.508 228.721 133.035 228.636 132.426C228.521 131.598 228.748 130.909 229.316 130.358C229.897 129.805 230.65 129.465 231.576 129.336C232.343 129.229 233.042 129.305 233.674 129.565C234.306 129.824 234.836 130.241 235.263 130.815L233.694 131.983C233.464 131.667 233.195 131.425 232.886 131.257C232.575 131.077 232.195 131.018 231.744 131.081C231.403 131.129 231.134 131.241 230.935 131.417C230.748 131.592 230.67 131.789 230.7 132.008C230.734 132.252 230.888 132.423 231.163 132.521C231.449 132.618 231.877 132.701 232.445 132.771C233.104 132.865 233.653 132.975 234.092 133.1C234.531 133.225 234.93 133.455 235.287 133.79C235.644 134.125 235.864 134.597 235.949 135.206C236.042 135.876 235.95 136.46 235.672 136.958C235.406 137.454 235.02 137.849 234.515 138.143C234.01 138.436 233.459 138.625 232.862 138.708ZM244.843 127.489C246.036 127.323 247.018 127.509 247.788 128.047C248.569 128.571 249.034 129.375 249.185 130.459L249.976 136.139L247.967 136.419L247.622 135.275C247.413 135.739 247.082 136.126 246.629 136.438C246.186 136.735 245.667 136.925 245.07 137.008C244.449 137.095 243.872 137.051 243.339 136.877C242.816 136.689 242.384 136.389 242.041 135.978C241.698 135.566 241.488 135.08 241.41 134.52C241.335 133.985 241.386 133.506 241.563 133.084C241.74 132.662 242.035 132.323 242.446 132.067C242.993 131.718 243.772 131.473 244.783 131.332L247.029 131.02L246.993 130.764C246.926 130.277 246.72 129.915 246.377 129.677C246.032 129.427 245.597 129.339 245.074 129.412C244.611 129.476 244.189 129.653 243.807 129.942C243.425 130.231 243.1 130.617 242.833 131.101L241.058 129.989C241.95 128.549 243.212 127.716 244.843 127.489ZM245.158 135.097C245.815 135.006 246.347 134.727 246.754 134.26C247.171 133.78 247.339 133.248 247.258 132.664L245.304 132.936C244.597 133.034 244.119 133.206 243.867 133.452C243.648 133.656 243.561 133.923 243.606 134.252C243.65 134.568 243.808 134.807 244.078 134.968C244.36 135.115 244.719 135.158 245.158 135.097ZM255.917 125.947C256.928 125.806 257.749 125.996 258.38 126.516C259.021 127.023 259.417 127.812 259.566 128.883L260.374 134.691L258.183 134.997L257.45 129.736C257.374 129.189 257.211 128.733 256.962 128.371C256.711 127.996 256.227 127.859 255.508 127.959C254.875 128.047 254.432 128.295 254.178 128.702C253.935 129.096 253.812 129.548 253.808 130.057C253.815 130.553 253.871 131.172 253.974 131.915L254.475 135.513L252.283 135.818L251.03 126.814L253.221 126.508L253.366 127.549C253.613 127.093 253.954 126.735 254.39 126.476C254.836 126.203 255.345 126.027 255.917 125.947ZM268.853 120.534L270.626 133.264L268.434 133.569L268.309 132.674C268.068 133.08 267.728 133.407 267.291 133.654C266.852 133.889 266.377 134.042 265.866 134.113C264.672 134.279 263.681 133.977 262.891 133.205C262.099 132.422 261.606 131.336 261.413 129.948C261.279 128.986 261.321 128.13 261.54 127.38C261.77 126.628 262.146 126.029 262.667 125.584C263.187 125.127 263.818 124.847 264.561 124.743C265.073 124.672 265.573 124.702 266.063 124.832C266.565 124.961 266.98 125.176 267.307 125.478L266.661 120.839L268.853 120.534ZM266.113 132.012C266.868 131.907 267.4 131.585 267.71 131.045C268.02 130.505 268.119 129.84 268.009 129.048C267.897 128.245 267.618 127.62 267.171 127.173C266.724 126.726 266.129 126.555 265.386 126.658C264.668 126.758 264.159 127.071 263.86 127.597C263.571 128.109 263.487 128.797 263.607 129.661C263.726 130.514 263.994 131.146 264.412 131.56C264.828 131.961 265.395 132.112 266.113 132.012ZM277.164 124.944L275.447 125.183L275.206 123.448L276.941 123.206L276.798 122.183C276.531 120.259 277.304 119.171 279.118 118.919C279.727 118.834 280.31 118.877 280.867 119.048L280.389 120.827C280.137 120.713 279.878 120.675 279.61 120.712C279.269 120.76 279.064 120.894 278.995 121.114C278.939 121.333 278.93 121.582 278.969 121.862L279.114 122.904L281.215 122.611L281.456 124.346L279.356 124.639L280.368 131.908L278.176 132.213L277.164 124.944ZM285.795 121.787C286.989 121.621 287.97 121.807 288.74 122.345C289.521 122.87 289.987 123.674 290.137 124.757L290.928 130.438L288.919 130.717L288.574 129.574C288.365 130.037 288.034 130.425 287.581 130.736C287.139 131.034 286.619 131.224 286.022 131.307C285.401 131.393 284.824 131.35 284.291 131.176C283.768 130.988 283.336 130.688 282.993 130.276C282.65 129.865 282.44 129.379 282.362 128.819C282.287 128.283 282.339 127.804 282.516 127.383C282.693 126.961 282.987 126.622 283.398 126.366C283.945 126.017 284.724 125.772 285.735 125.631L287.981 125.318L287.946 125.063C287.878 124.576 287.672 124.213 287.329 123.975C286.984 123.726 286.549 123.637 286.026 123.71C285.563 123.774 285.141 123.951 284.759 124.24C284.377 124.529 284.053 124.916 283.785 125.4L282.01 124.288C282.902 122.848 284.164 122.014 285.795 121.787ZM286.11 129.396C286.767 129.304 287.3 129.025 287.706 128.559C288.124 128.079 288.292 127.547 288.21 126.962L286.256 127.234C285.55 127.332 285.071 127.505 284.82 127.751C284.6 127.955 284.513 128.222 284.559 128.55C284.603 128.867 284.76 129.106 285.031 129.267C285.312 129.414 285.672 129.457 286.11 129.396ZM302.02 119.528C303.043 119.386 303.869 119.612 304.498 120.207C305.125 120.79 305.507 121.569 305.642 122.543L306.441 128.278L304.249 128.583L303.542 123.506C303.339 122.045 302.725 121.385 301.703 121.528C301.13 121.607 300.742 121.847 300.537 122.248C300.33 122.637 300.237 123.078 300.256 123.572C300.273 124.054 300.343 124.733 300.465 125.61L300.943 129.043L298.751 129.349L298.044 124.271C297.841 122.81 297.234 122.15 296.223 122.29C295.651 122.37 295.262 122.61 295.058 123.011C294.851 123.4 294.752 123.848 294.761 124.356C294.78 124.85 294.849 125.523 294.967 126.375L295.445 129.809L293.254 130.114L291.982 121.112L294.1 120.817L294.258 121.95C294.647 121.002 295.39 120.451 296.486 120.299C297.046 120.221 297.576 120.284 298.076 120.487C298.588 120.689 299.017 121.095 299.363 121.704C299.603 121.025 299.948 120.518 300.398 120.182C300.846 119.835 301.387 119.617 302.02 119.528ZM307.517 118.949L309.709 118.644L310.963 127.648L308.771 127.954L307.517 118.949ZM306.944 115.231L309.245 114.911L309.527 116.938L307.226 117.258L306.944 115.231ZM315.568 127.193C314.923 127.283 314.378 127.161 313.934 126.825C313.503 126.488 313.232 125.93 313.124 125.151L311.652 114.575L313.843 114.27L315.295 124.699C315.348 125.077 315.587 125.236 316.013 125.177C316.22 125.148 316.447 125.079 316.692 124.97L316.936 126.724C316.475 126.974 316.019 127.131 315.568 127.193ZM320.721 126.048L315.975 117.772L318.386 117.436L321.539 123.365L322.971 116.798L325.381 116.462L322.04 129.904L319.665 130.235L320.721 126.048ZM329.457 119.842C329.388 119.343 329.41 118.924 329.524 118.585C329.639 118.246 329.794 117.977 329.989 117.776C330.195 117.561 330.467 117.331 330.805 117.085C331.21 116.78 331.506 116.503 331.695 116.253C331.882 115.992 331.945 115.642 331.884 115.203C331.802 114.619 331.553 114.213 331.137 113.985C330.719 113.746 330.187 113.671 329.542 113.76C328.166 113.952 327.578 114.766 327.778 116.203L325.842 116.473C325.669 115.231 325.886 114.207 326.494 113.403C327.114 112.597 328.021 112.11 329.214 111.944C329.957 111.841 330.658 111.886 331.318 112.079C331.978 112.273 332.529 112.618 332.971 113.115C333.423 113.599 333.701 114.218 333.806 114.973C333.895 115.606 333.864 116.144 333.715 116.587C333.564 117.017 333.364 117.368 333.116 117.638C332.867 117.896 332.55 118.164 332.167 118.441C331.841 118.685 331.609 118.891 331.471 119.059C331.343 119.213 331.294 119.394 331.323 119.601L331.503 120.897L329.64 121.157L329.457 119.842ZM329.604 122.633L331.997 122.3L332.327 124.674L329.934 125.007L329.604 122.633Z" fill="black"/>
<path d="M110.93 215.76L112.111 224.246L110.528 224.467L106.156 219.093L106.973 224.962L105.451 225.174L104.269 216.687L105.84 216.468L110.221 221.816L109.408 215.971L110.93 215.76ZM116.484 223.762C115.883 223.845 115.332 223.781 114.831 223.57C114.337 223.349 113.935 223.016 113.625 222.571C113.315 222.126 113.12 221.619 113.041 221.051C112.962 220.483 113.011 219.946 113.189 219.442C113.366 218.929 113.662 218.503 114.079 218.164C114.502 217.815 115.014 217.599 115.614 217.515C116.215 217.432 116.762 217.5 117.257 217.721C117.75 217.934 118.151 218.263 118.461 218.708C118.779 219.144 118.977 219.646 119.056 220.214C119.135 220.782 119.082 221.323 118.897 221.837C118.72 222.35 118.424 222.78 118.009 223.127C117.593 223.467 117.085 223.678 116.484 223.762ZM116.306 222.483C116.826 222.411 117.187 222.183 117.39 221.799C117.601 221.413 117.669 220.953 117.595 220.417C117.52 219.881 117.329 219.461 117.022 219.156C116.722 218.842 116.312 218.722 115.792 218.794C115.273 218.866 114.907 219.095 114.696 219.48C114.492 219.856 114.427 220.312 114.502 220.848C114.577 221.383 114.764 221.808 115.064 222.122C115.373 222.435 115.786 222.556 116.306 222.483ZM121.648 217.979L122.074 221.035C122.107 221.27 122.196 221.436 122.342 221.531C122.495 221.626 122.694 221.656 122.938 221.622C123.141 221.594 123.378 221.515 123.65 221.386L123.812 222.555C123.464 222.728 123.107 222.84 122.742 222.891C122.198 222.966 121.731 222.882 121.342 222.639C120.951 222.387 120.713 221.957 120.628 221.348L120.187 218.182L119.213 218.318L119.052 217.161L120.026 217.025L119.831 215.625L121.142 214.338L121.487 216.822L122.985 216.613L123.146 217.77L121.648 217.979ZM129.395 221.964C128.965 222.024 128.602 221.942 128.306 221.719C128.018 221.494 127.838 221.122 127.766 220.602L126.784 213.552L128.245 213.349L129.213 220.302C129.248 220.553 129.408 220.659 129.692 220.62C129.83 220.6 129.981 220.555 130.144 220.482L130.307 221.651C129.999 221.818 129.695 221.922 129.395 221.964ZM130.58 215.556L132.041 215.353L132.877 221.355L131.415 221.559L130.58 215.556ZM130.197 213.077L131.732 212.863L131.92 214.215L130.385 214.429L130.197 213.077ZM133.409 212.63L134.87 212.427L135.555 217.346L137.42 214.604L139.38 214.331L137.464 216.968L140.472 220.298L138.73 220.54L136.591 218.008L135.808 219.16L136.052 220.913L134.591 221.117L133.409 212.63ZM145.661 216.435C145.686 216.614 145.7 216.802 145.702 217L141.587 217.573C141.676 217.975 141.862 218.276 142.147 218.476C142.431 218.676 142.805 218.744 143.267 218.68C143.852 218.599 144.301 218.317 144.614 217.835L145.749 218.583C145.467 218.994 145.135 219.318 144.754 219.553C144.381 219.787 143.943 219.939 143.44 220.009C142.783 220.1 142.211 220.035 141.725 219.813C141.247 219.59 140.87 219.262 140.595 218.829C140.318 218.387 140.141 217.886 140.063 217.326C139.986 216.774 140.016 216.245 140.152 215.738C140.296 215.229 140.559 214.8 140.941 214.449C141.329 214.088 141.84 213.864 142.473 213.776C143.074 213.692 143.6 213.756 144.051 213.966C144.502 214.176 144.862 214.499 145.129 214.933C145.404 215.366 145.582 215.867 145.661 216.435ZM144.178 216.034C144.117 215.661 143.942 215.384 143.652 215.201C143.361 215.01 143.02 214.941 142.63 214.995C142.216 215.053 141.909 215.22 141.707 215.496C141.513 215.763 141.415 216.071 141.413 216.418L144.178 216.034ZM148.658 219.282C148.228 219.342 147.865 219.26 147.569 219.037C147.281 218.812 147.101 218.44 147.029 217.92L146.047 210.87L147.508 210.667L148.476 217.62C148.511 217.871 148.671 217.977 148.955 217.938C149.093 217.919 149.244 217.873 149.408 217.8L149.57 218.969C149.263 219.136 148.959 219.241 148.658 219.282ZM152.093 218.519L148.93 213.001L150.537 212.777L152.639 216.73L153.593 212.352L155.2 212.128L152.973 221.09L151.39 221.31L152.093 218.519Z" fill="#989898"/>
<path d="M438.046 170.21L435.843 179.168L434.698 179.328L430.12 171.314L431.8 171.08L434.925 176.764L436.366 170.444L438.046 170.21ZM444.02 174.89C444.044 175.068 444.058 175.257 444.061 175.455L439.945 176.028C440.034 176.429 440.221 176.73 440.506 176.93C440.79 177.131 441.163 177.199 441.626 177.134C442.211 177.053 442.66 176.771 442.973 176.289L444.108 177.037C443.826 177.449 443.494 177.772 443.113 178.007C442.74 178.241 442.302 178.393 441.799 178.463C441.141 178.555 440.57 178.49 440.083 178.268C439.606 178.045 439.229 177.716 438.953 177.283C438.677 176.842 438.5 176.341 438.422 175.781C438.345 175.229 438.374 174.699 438.511 174.192C438.655 173.684 438.918 173.254 439.299 172.903C439.688 172.543 440.199 172.319 440.832 172.23C441.432 172.147 441.958 172.21 442.41 172.42C442.861 172.631 443.22 172.953 443.488 173.387C443.763 173.821 443.94 174.321 444.02 174.89ZM442.536 174.488C442.476 174.116 442.301 173.838 442.011 173.655C441.719 173.464 441.379 173.396 440.989 173.45C440.575 173.507 440.267 173.674 440.066 173.951C439.871 174.218 439.773 174.525 439.772 174.873L442.536 174.488ZM447.876 171.25C448.274 171.194 448.671 171.255 449.068 171.431L448.542 172.82C448.312 172.712 448.058 172.677 447.783 172.715C446.898 172.838 446.533 173.46 446.689 174.58L447.11 177.6L445.648 177.803L444.813 171.8L446.286 171.595L446.428 172.618C446.501 172.244 446.669 171.935 446.932 171.691C447.205 171.447 447.519 171.299 447.876 171.25ZM452.295 176.716L449.132 171.199L450.739 170.975L452.841 174.928L453.795 170.55L455.402 170.326L453.175 179.288L451.592 179.508L452.295 176.716ZM461.357 175.74C460.927 175.8 460.564 175.718 460.268 175.495C459.98 175.27 459.8 174.898 459.728 174.378L458.746 167.328L460.208 167.125L461.176 174.078C461.211 174.329 461.37 174.435 461.654 174.396C461.792 174.376 461.943 174.331 462.107 174.258L462.27 175.427C461.962 175.594 461.658 175.698 461.357 175.74ZM462.542 169.332L464.003 169.129L464.839 175.131L463.378 175.335L462.542 169.332ZM462.16 166.853L463.694 166.64L463.882 167.991L462.348 168.205L462.16 166.853ZM465.371 166.406L466.833 166.203L467.517 171.122L469.382 168.38L471.343 168.107L469.426 170.744L472.434 174.074L470.693 174.316L468.553 171.784L467.77 172.936L468.014 174.689L466.553 174.893L465.371 166.406ZM477.623 170.211C477.648 170.39 477.662 170.578 477.665 170.777L473.549 171.349C473.638 171.751 473.825 172.052 474.109 172.252C474.394 172.452 474.767 172.52 475.23 172.456C475.814 172.375 476.263 172.093 476.577 171.611L477.711 172.359C477.429 172.77 477.098 173.094 476.717 173.329C476.344 173.563 475.906 173.715 475.402 173.785C474.745 173.876 474.173 173.811 473.687 173.589C473.209 173.366 472.833 173.038 472.557 172.605C472.281 172.163 472.103 171.663 472.025 171.102C471.948 170.55 471.978 170.021 472.114 169.514C472.259 169.005 472.522 168.576 472.903 168.225C473.291 167.864 473.802 167.64 474.435 167.552C475.036 167.468 475.562 167.532 476.013 167.742C476.465 167.952 476.824 168.275 477.091 168.709C477.367 169.142 477.544 169.643 477.623 170.211ZM476.14 169.81C476.08 169.437 475.905 169.16 475.614 168.977C475.323 168.786 474.982 168.717 474.593 168.771C474.179 168.829 473.871 168.996 473.67 169.272C473.475 169.539 473.377 169.847 473.376 170.194L476.14 169.81ZM480.621 173.058C480.19 173.118 479.827 173.036 479.531 172.813C479.244 172.588 479.064 172.216 478.991 171.697L478.01 164.646L479.471 164.443L480.439 171.396C480.474 171.647 480.633 171.753 480.918 171.714C481.056 171.695 481.206 171.649 481.37 171.576L481.533 172.745C481.225 172.912 480.921 173.017 480.621 173.058ZM484.056 172.295L480.892 166.777L482.499 166.554L484.601 170.506L485.556 166.128L487.163 165.904L484.935 174.866L483.352 175.086L484.056 172.295Z" fill="#989898"/>
<circle cx="114.585" cy="185.693" r="14.8336" transform="rotate(-7.92588 114.585 185.693)" stroke="black" stroke-width="1.46505"/>
<path d="M115.355 191.207C113.997 191.396 113.033 191.054 112.462 190.18C111.9 189.306 111.526 188.203 111.34 186.871C111.161 185.584 111.223 184.447 111.526 183.461C111.83 182.475 112.665 181.887 114.031 181.697C115.398 181.506 116.363 181.848 116.925 182.723C117.486 183.589 117.855 184.661 118.033 185.94C118.219 187.271 118.156 188.435 117.845 189.431C117.543 190.426 116.713 191.018 115.355 191.207ZM115.09 189.302C115.619 189.228 115.933 188.933 116.032 188.416C116.14 187.898 116.131 187.189 116.006 186.289C115.877 185.363 115.69 184.67 115.446 184.21C115.21 183.739 114.827 183.541 114.298 183.615C113.769 183.688 113.451 183.984 113.343 184.503C113.243 185.011 113.258 185.728 113.387 186.654C113.512 187.553 113.693 188.238 113.929 188.709C114.174 189.178 114.561 189.376 115.09 189.302Z" fill="black"/>
<circle cx="149.857" cy="180.775" r="14.8336" transform="rotate(-7.92588 149.857 180.775)" stroke="black" stroke-width="1.46505"/>
<path d="M150.912 176.716L152.196 185.936L150.198 186.214L149.331 179.984L147.268 180.271L147.049 178.697L148.093 178.552C148.437 178.504 148.683 178.393 148.829 178.22C148.976 178.047 149.024 177.779 148.974 177.418L148.915 176.994L150.912 176.716Z" fill="black"/>
<circle cx="185.128" cy="175.869" r="14.8336" transform="rotate(-7.92588 185.128 175.869)" stroke="black" stroke-width="1.46505"/>
<path d="M188.905 178.914L189.167 180.793L182.659 181.699L182.438 180.111C183.393 179.349 184.246 178.503 184.997 177.571C185.757 176.638 186.077 175.744 185.958 174.889C185.91 174.545 185.783 174.279 185.578 174.092C185.379 173.895 185.104 173.821 184.751 173.87C183.975 173.978 183.625 174.598 183.702 175.729L181.722 175.843C181.645 175.287 181.697 174.727 181.879 174.162C182.069 173.587 182.387 173.098 182.835 172.694C183.289 172.281 183.856 172.026 184.535 171.932C185.108 171.852 185.638 171.909 186.123 172.102C186.607 172.286 187.009 172.59 187.328 173.013C187.648 173.436 187.849 173.947 187.933 174.546C188.005 175.067 187.952 175.622 187.774 176.213C187.604 176.803 187.329 177.377 186.948 177.933C186.567 178.489 186.113 178.971 185.585 179.377L188.905 178.914Z" fill="black"/>
<circle cx="220.398" cy="170.959" r="14.8336" transform="rotate(-7.92588 220.398 170.959)" stroke="black" stroke-width="1.46505"/>
<path d="M221.102 176.482C220.467 176.57 219.864 176.537 219.295 176.383C218.732 176.218 218.256 175.925 217.864 175.503C217.473 175.081 217.229 174.526 217.134 173.839L219.101 173.443C219.16 173.866 219.356 174.176 219.689 174.373C220.031 174.568 220.435 174.633 220.903 174.568C221.317 174.51 221.652 174.365 221.907 174.131C222.162 173.898 222.26 173.57 222.201 173.146C222.155 172.811 222.028 172.582 221.822 172.458C221.625 172.332 221.406 172.273 221.164 172.28C220.931 172.285 220.59 172.319 220.14 172.382L219.923 170.821C220.496 170.741 220.864 170.609 221.027 170.425C221.199 170.239 221.266 170.009 221.228 169.736C221.184 169.418 221.048 169.19 220.822 169.051C220.605 168.91 220.338 168.862 220.02 168.906C219.694 168.952 219.447 169.085 219.28 169.306C219.112 169.518 219.046 169.788 219.083 170.115L217.094 170.258C217.013 169.676 217.084 169.153 217.307 168.691C217.538 168.218 217.876 167.838 218.321 167.552C218.766 167.256 219.27 167.069 219.834 166.991C220.372 166.916 220.885 166.952 221.373 167.1C221.86 167.239 222.263 167.484 222.581 167.835C222.908 168.185 223.109 168.625 223.183 169.154C223.237 169.542 223.21 169.896 223.101 170.217C222.992 170.528 222.804 170.788 222.536 170.996C223.041 171.142 223.43 171.384 223.702 171.724C223.974 172.064 224.144 172.476 224.212 172.961C224.304 173.622 224.219 174.205 223.956 174.709C223.692 175.204 223.308 175.604 222.802 175.908C222.294 176.203 221.728 176.394 221.102 176.482Z" fill="black"/>
<circle cx="255.673" cy="166.056" r="14.8336" transform="rotate(-7.92588 255.673 166.056)" stroke="black" stroke-width="1.46505"/>
<path d="M259.616 166.854L259.881 168.759L258.426 168.961L258.726 171.117L256.729 171.395L256.429 169.239L252.302 169.814L252.14 168.65L255.723 162.138L257.443 161.898L258.161 167.057L259.616 166.854ZM256.164 167.335L255.843 165.033L254.524 167.563L256.164 167.335Z" fill="black"/>
<circle cx="290.943" cy="161.142" r="14.8336" transform="rotate(-7.92588 290.943 161.142)" stroke="black" stroke-width="1.46505"/>
<path d="M290.983 160.056C291.609 159.969 292.185 160.037 292.71 160.261C293.244 160.483 293.683 160.822 294.025 161.278C294.366 161.725 294.575 162.226 294.652 162.782C294.734 163.372 294.662 163.953 294.436 164.524C294.209 165.086 293.853 165.563 293.368 165.954C292.883 166.345 292.31 166.586 291.648 166.678C291.058 166.761 290.493 166.709 289.955 166.523C289.417 166.337 288.954 166.051 288.568 165.665C288.189 165.268 287.932 164.809 287.797 164.289L289.708 163.686C289.771 164.009 289.945 164.291 290.23 164.53C290.514 164.76 290.89 164.842 291.357 164.777C291.833 164.711 292.16 164.513 292.339 164.182C292.527 163.851 292.592 163.482 292.536 163.076C292.484 162.706 292.331 162.413 292.076 162.196C291.82 161.971 291.45 161.893 290.965 161.96C290.365 162.044 289.957 162.343 289.741 162.859L287.84 162.665L288.083 157.629L293.427 156.885L293.692 158.789L289.975 159.307L289.914 160.421C290.195 160.238 290.551 160.117 290.983 160.056Z" fill="black"/>
<circle cx="326.216" cy="156.228" r="14.8336" transform="rotate(-7.92588 326.216 156.228)" stroke="black" stroke-width="1.46505"/>
<path d="M326.4 155.257C327 155.174 327.562 155.239 328.086 155.454C328.618 155.659 329.054 155.984 329.395 156.431C329.744 156.868 329.959 157.382 330.041 157.973C330.13 158.608 330.05 159.199 329.803 159.745C329.564 160.291 329.195 160.742 328.697 161.099C328.206 161.446 327.647 161.663 327.021 161.751C326.386 161.839 325.781 161.784 325.205 161.585C324.628 161.378 324.145 161.045 323.758 160.587C323.379 160.127 323.146 159.584 323.059 158.958C322.971 158.323 323.065 157.708 323.341 157.112L325.479 152.419L327.781 152.099L326.202 155.285L326.4 155.257ZM326.756 159.846C327.17 159.788 327.497 159.617 327.736 159.332C327.984 159.046 328.078 158.687 328.017 158.255C327.957 157.822 327.773 157.502 327.466 157.293C327.157 157.075 326.791 156.996 326.367 157.055C325.944 157.114 325.609 157.291 325.362 157.586C325.124 157.871 325.034 158.229 325.094 158.661C325.154 159.094 325.338 159.414 325.646 159.623C325.963 159.83 326.333 159.905 326.756 159.846Z" fill="black"/>
<circle cx="361.484" cy="151.318" r="14.8336" transform="rotate(-7.92588 361.484 151.318)" stroke="black" stroke-width="1.46505"/>
<path d="M364.344 147.008L364.486 148.026L361.792 156.761L359.491 157.082L362.083 149.264L357.93 149.843L357.665 147.938L364.344 147.008Z" fill="black"/>
<circle cx="396.753" cy="146.4" r="14.8336" transform="rotate(-7.92588 396.753 146.4)" stroke="black" stroke-width="1.46505"/>
<path d="M397.518 151.928C396.866 152.019 396.251 151.992 395.673 151.848C395.105 151.702 394.627 151.432 394.239 151.036C393.852 150.641 393.613 150.126 393.525 149.491C393.39 148.521 393.657 147.728 394.327 147.114C394.068 146.934 393.859 146.725 393.7 146.486C393.55 146.247 393.451 145.955 393.403 145.611C393.326 145.055 393.404 144.55 393.637 144.095C393.87 143.64 394.214 143.269 394.668 142.981C395.121 142.684 395.63 142.496 396.194 142.418C396.759 142.339 397.299 142.381 397.816 142.543C398.332 142.696 398.764 142.959 399.113 143.333C399.462 143.707 399.675 144.172 399.752 144.727C399.8 145.071 399.78 145.379 399.692 145.652C399.613 145.924 399.473 146.182 399.274 146.425C400.086 146.833 400.559 147.523 400.694 148.493C400.782 149.127 400.694 149.688 400.429 150.174C400.164 150.661 399.774 151.052 399.258 151.349C398.751 151.644 398.171 151.837 397.518 151.928ZM396.723 146.214C397.076 146.165 397.347 146.046 397.536 145.858C397.733 145.66 397.812 145.42 397.773 145.137C397.731 144.838 397.592 144.614 397.356 144.467C397.129 144.319 396.83 144.271 396.46 144.322C396.089 144.374 395.81 144.503 395.623 144.709C395.445 144.913 395.377 145.165 395.419 145.465C395.458 145.747 395.595 145.957 395.83 146.096C396.073 146.224 396.37 146.263 396.723 146.214ZM397.255 150.037C397.74 149.969 398.109 149.81 398.362 149.559C398.622 149.298 398.724 148.969 398.669 148.572C398.614 148.175 398.426 147.891 398.106 147.72C397.785 147.549 397.387 147.497 396.911 147.563C396.435 147.629 396.066 147.789 395.804 148.041C395.543 148.293 395.439 148.617 395.495 149.014C395.55 149.411 395.734 149.7 396.047 149.881C396.367 150.052 396.77 150.104 397.255 150.037Z" fill="black"/>
<circle cx="432.031" cy="141.498" r="14.8336" transform="rotate(-7.92588 432.031 141.498)" stroke="black" stroke-width="1.46505"/>
<path d="M431.472 137.515C432.107 137.427 432.713 137.487 433.29 137.694C433.866 137.892 434.343 138.221 434.722 138.681C435.109 139.139 435.346 139.682 435.434 140.308C435.522 140.943 435.428 141.558 435.151 142.154L433.014 146.847L430.712 147.167L432.291 143.981L432.093 144.009C431.493 144.092 430.927 144.032 430.395 143.827C429.871 143.613 429.435 143.287 429.086 142.85C428.745 142.403 428.534 141.884 428.452 141.293C428.363 140.658 428.438 140.068 428.677 139.523C428.924 138.976 429.294 138.529 429.785 138.182C430.283 137.825 430.846 137.603 431.472 137.515ZM432.125 142.211C432.549 142.152 432.88 141.98 433.119 141.695C433.365 141.4 433.459 141.037 433.398 140.605C433.338 140.172 433.15 139.853 432.833 139.645C432.526 139.436 432.16 139.361 431.737 139.42C431.322 139.478 430.991 139.65 430.744 139.936C430.505 140.221 430.415 140.579 430.475 141.012C430.535 141.444 430.72 141.768 431.029 141.986C431.337 142.195 431.702 142.27 432.125 142.211Z" fill="black"/>
<circle cx="467.3" cy="136.584" r="14.8336" transform="rotate(-7.92588 467.3 136.584)" stroke="black" stroke-width="1.46505"/>
<path d="M464.403 133.075L465.686 142.294L463.689 142.573L462.822 136.343L460.758 136.63L460.539 135.056L461.584 134.91C461.928 134.863 462.173 134.752 462.32 134.579C462.467 134.406 462.515 134.138 462.465 133.777L462.406 133.353L464.403 133.075ZM472.023 141.547C470.665 141.736 469.7 141.394 469.129 140.521C468.567 139.646 468.193 138.543 468.008 137.212C467.829 135.924 467.891 134.787 468.194 133.801C468.497 132.815 469.332 132.227 470.699 132.037C472.066 131.847 473.03 132.189 473.592 133.063C474.153 133.929 474.523 135.001 474.701 136.28C474.886 137.611 474.823 138.775 474.513 139.771C474.211 140.766 473.381 141.358 472.023 141.547ZM471.758 139.642C472.287 139.569 472.601 139.273 472.699 138.756C472.807 138.238 472.798 137.529 472.673 136.63C472.544 135.704 472.358 135.011 472.114 134.55C471.878 134.08 471.495 133.881 470.966 133.955C470.437 134.029 470.118 134.325 470.011 134.843C469.911 135.351 469.925 136.068 470.054 136.994C470.179 137.894 470.36 138.579 470.596 139.049C470.841 139.518 471.229 139.716 471.758 139.642Z" fill="black"/>
<path d="M84.6016 176.137H60.3303H27.9686C13.0746 176.137 1.00053 164.063 1.00053 149.169V129.392C1.00053 114.498 13.0745 102.424 27.9686 102.424H47.7452C62.6392 102.424 74.7133 114.498 74.7133 129.392V159.262C74.7133 160.302 75.0138 161.319 75.5786 162.192L84.6016 176.137Z" fill="#242424" stroke="white" stroke-opacity="0.2" stroke-width="0.898936"/>
<rect x="20.1402" y="119.832" width="38.2563" height="36.4769" stroke="white" stroke-width="0.88968"/>
<path d="M29.5605 133.297V127.797H39.4607M49.3608 133.297V127.797H39.4607M39.4607 127.797V147.597M39.4607 147.597H33.729M39.4607 147.597H45.1923" stroke="#00FFFF" stroke-width="3.08004"/>
<path d="M484.43 49.9062H508.701H541.063C555.957 49.9062 568.031 61.9803 568.031 76.8743V96.6509C568.031 111.545 555.957 123.619 541.063 123.619H521.286C506.392 123.619 494.318 111.545 494.318 96.6509V66.781C494.318 65.7413 494.017 64.7238 493.453 63.8509L484.43 49.9062Z" fill="#242424" stroke="white" stroke-opacity="0.2" stroke-width="0.898936"/>
<g filter="url(#filter0_d)">
<path d="M525.393 82.4147L536.311 66.0859L547.557 82.0197C551.627 87.786 550.538 95.7329 545.088 100.217C540.032 104.376 532.692 104.295 527.749 100.002C522.645 95.57 521.636 88.0335 525.393 82.4147Z" fill="#8684FF"/>
</g>
<g filter="url(#filter1_d)">
<path d="M518.873 82.4147L529.792 66.0859L541.038 82.0197C545.108 87.786 544.019 95.7329 538.568 100.217C533.512 104.376 526.173 104.295 521.229 100.002C516.126 95.57 515.116 88.0335 518.873 82.4147Z" fill="#FF31AD"/>
</g>
<g filter="url(#filter2_d)">
<path d="M512.281 82.3092L523.2 65.9805L534.446 81.9142C538.516 87.6805 537.427 95.6275 531.976 100.111C526.92 104.271 519.581 104.189 514.638 99.8963C509.534 95.4645 508.524 87.9281 512.281 82.3092Z" fill="white"/>
</g>
<defs>
<filter id="filter0_d" x="518.779" y="66.0859" width="35.5871" height="45.8931" filterUnits="userSpaceOnUse" color-interpolation-filters="sRGB">
<feFlood flood-opacity="0" result="BackgroundImageFix"/>
<feColorMatrix in="SourceAlpha" type="matrix" values="0 0 0 0 0 0 0 0 0 0 0 0 0 0 0 0 0 0 127 0" result="hardAlpha"/>
<feOffset dy="4.34955"/>
<feGaussianBlur stdDeviation="2.17477"/>
<feComposite in2="hardAlpha" operator="out"/>
<feColorMatrix type="matrix" values="0 0 0 0 0 0 0 0 0 0 0 0 0 0 0 0 0 0 0.25 0"/>
<feBlend mode="normal" in2="BackgroundImageFix" result="effect1_dropShadow"/>
<feBlend mode="normal" in="SourceGraphic" in2="effect1_dropShadow" result="shape"/>
</filter>
<filter id="filter1_d" x="512.26" y="66.0859" width="35.5871" height="45.8931" filterUnits="userSpaceOnUse" color-interpolation-filters="sRGB">
<feFlood flood-opacity="0" result="BackgroundImageFix"/>
<feColorMatrix in="SourceAlpha" type="matrix" values="0 0 0 0 0 0 0 0 0 0 0 0 0 0 0 0 0 0 127 0" result="hardAlpha"/>
<feOffset dy="4.34955"/>
<feGaussianBlur stdDeviation="2.17477"/>
<feComposite in2="hardAlpha" operator="out"/>
<feColorMatrix type="matrix" values="0 0 0 0 0 0 0 0 0 0 0 0 0 0 0 0 0 0 0.25 0"/>
<feBlend mode="normal" in2="BackgroundImageFix" result="effect1_dropShadow"/>
<feBlend mode="normal" in="SourceGraphic" in2="effect1_dropShadow" result="shape"/>
</filter>
<filter id="filter2_d" x="505.668" y="65.9805" width="35.5871" height="45.8931" filterUnits="userSpaceOnUse" color-interpolation-filters="sRGB">
<feFlood flood-opacity="0" result="BackgroundImageFix"/>
<feColorMatrix in="SourceAlpha" type="matrix" values="0 0 0 0 0 0 0 0 0 0 0 0 0 0 0 0 0 0 127 0" result="hardAlpha"/>
<feOffset dy="4.34955"/>
<feGaussianBlur stdDeviation="2.17477"/>
<feComposite in2="hardAlpha" operator="out"/>
<feColorMatrix type="matrix" values="0 0 0 0 0 0 0 0 0 0 0 0 0 0 0 0 0 0 0.25 0"/>
<feBlend mode="normal" in2="BackgroundImageFix" result="effect1_dropShadow"/>
<feBlend mode="normal" in="SourceGraphic" in2="effect1_dropShadow" result="shape"/>
</filter>
</defs>
</svg>
