<svg width="43" height="43" viewBox="0 0 43 43" fill="none" xmlns="http://www.w3.org/2000/svg">
<circle cx="21.5" cy="21.5" r="19.5" stroke="#AFFFC6" stroke-width="3"/>
<path d="M14.9142 21.0858C14.1332 20.3047 12.8668 20.3047 12.0858 21.0858C11.3047 21.8668 11.3047 23.1332 12.0858 23.9142L14.9142 21.0858ZM31.4142 17.4142C32.1953 16.6332 32.1953 15.3668 31.4142 14.5858C30.6332 13.8047 29.3668 13.8047 28.5858 14.5858L31.4142 17.4142ZM17.0858 26.0858L15.6716 27.5L17.0858 26.0858ZM12.0858 23.9142L15.6716 27.5L18.5 24.6716L14.9142 21.0858L12.0858 23.9142ZM21.3284 27.5L31.4142 17.4142L28.5858 14.5858L18.5 24.6716L21.3284 27.5ZM15.6716 27.5C17.2337 29.0621 19.7663 29.0621 21.3284 27.5L18.5 24.6716L18.5 24.6716L15.6716 27.5Z" fill="#AFFFC6"/>
</svg>
